<svg xmlns="http://www.w3.org/2000/svg" viewBox="0 0 512 512">
  <defs>
    <linearGradient id="grad1" x1="0%" y1="0%" x2="100%" y2="100%">
      <stop offset="0%" style="stop-color:#0ea5e9;stop-opacity:1" />
      <stop offset="100%" style="stop-color:#0284c7;stop-opacity:1" />
    </linearGradient>
  </defs>
  <path d="M464 64H48C21.49 64 0 85.49 0 112v336c0 26.51 21.49 48 48 48h416c26.51 0 48-21.49 48-48V112c0-26.51-21.49-48-48-48zm-16 336H64a16 16 0 0 1-16-16V128a16 16 0 0 1 16-16h384a16 16 0 0 1 16 16v256a16 16 0 0 1-16 16z" fill="url(#grad1)"/>
  <path d="M128 96h256v32H128zm0 64h256v32H128zm0 64h192v32H128z" fill="#ffffff" opacity="0.6"/>
  <circle cx="360" cy="300" r="60" fill="#fbbf24" />
  <path d="M360 260l10 30h30l-25 18 10 30-25-18-25 18 10-30-25-18h30z" fill="#ffffff"/>
</svg>